REM DIRINDEX 1\2,1\4,1\3\5,1\3\6,1\3\7
REM DIRNAME cjc082,folder01,folder02,folder03,folder04,folder05,folder06
TITLE ""
FILE "CD1Track24.mp3" MP3
  TRACK 01 AUDIO
    TITLE "0:"
    INDEX 01 00:00:00
  TRACK 02 AUDIO
    TITLE "5:cjc082_0402"
    INDEX 01 00:00:29
  TRACK 03 AUDIO
    TITLE "0:"
    INDEX 01 00:01:50
  TRACK 04 AUDIO
    TITLE "6:cjc082_0403"
    INDEX 01 00:02:22
  TRACK 05 AUDIO
    TITLE "0:"
    INDEX 01 00:04:07
  TRACK 06 AUDIO
    TITLE "5:cjc082_0404"
    INDEX 01 00:04:54
  TRACK 07 AUDIO
    TITLE "0:"
    INDEX 01 00:05:73
  TRACK 08 AUDIO
    TITLE "6:cjc082_0405"
    INDEX 01 00:06:47
  TRACK 09 AUDIO
    TITLE "0:"
    INDEX 01 00:09:73
  TRACK 10 AUDIO
    TITLE "5:cjc082_0406"
    INDEX 01 00:10:41
  TRACK 11 AUDIO
    TITLE "0:"
    INDEX 01 00:11:58
  TRACK 12 AUDIO
    TITLE "6:cjc082_0407"
    INDEX 01 00:12:32
  TRACK 13 AUDIO
    TITLE "0:"
    INDEX 01 00:13:32
  TRACK 14 AUDIO
    TITLE "5:cjc082_0408"
    INDEX 01 00:14:00
  TRACK 15 AUDIO
    TITLE "0:"
    INDEX 01 00:15:32
  TRACK 16 AUDIO
    TITLE "6:cjc082_0409"
    INDEX 01 00:16:08
  TRACK 17 AUDIO
    TITLE "0:"
    INDEX 01 00:17:74
  TRACK 18 AUDIO
    TITLE "5:cjc082_0410"
    INDEX 01 00:18:50
  TRACK 19 AUDIO
    TITLE "0:"
    INDEX 01 00:19:52
  TRACK 20 AUDIO
    TITLE "6:cjc082_0411"
    INDEX 01 00:20:26
  TRACK 21 AUDIO
    TITLE "0:"
    INDEX 01 00:22:40
  TRACK 22 AUDIO
    TITLE "5:cjc082_0412"
    INDEX 01 00:23:14
  TRACK 23 AUDIO
    TITLE "0:"
    INDEX 01 00:24:37
  TRACK 24 AUDIO
    TITLE "6:cjc082_0413"
    INDEX 01 00:25:13
  TRACK 25 AUDIO
    TITLE "0:"
    INDEX 01 00:26:28
  TRACK 26 AUDIO
    TITLE "5:cjc082_0414"
    INDEX 01 00:27:00
  TRACK 27 AUDIO
    TITLE "0:"
    INDEX 01 00:28:02
  TRACK 28 AUDIO
    TITLE "6:cjc082_0415"
    INDEX 01 00:28:53
  TRACK 29 AUDIO
    TITLE "0:"
    INDEX 01 00:31:37
  TRACK 30 AUDIO
    TITLE "5:cjc082_0416"
    INDEX 01 00:32:15
  TRACK 31 AUDIO
    TITLE "0:"
    INDEX 01 00:33:28
  TRACK 32 AUDIO
    TITLE "6:cjc082_0417"
    INDEX 01 00:34:04
  TRACK 33 AUDIO
    TITLE "0:"
    INDEX 01 00:35:70
  TRACK 34 AUDIO
    TITLE "5:cjc082_0418"
    INDEX 01 00:36:52
  TRACK 35 AUDIO
    TITLE "0:"
    INDEX 01 00:38:10
  TRACK 36 AUDIO
    TITLE "6:cjc082_0419"
    INDEX 01 00:38:61
  TRACK 37 AUDIO
    TITLE "0:"
    INDEX 01 00:43:19
  TRACK 38 AUDIO
    TITLE "5:cjc082_0420"
    INDEX 01 00:43:72
  TRACK 39 AUDIO
    TITLE "0:"
    INDEX 01 00:45:22
  TRACK 40 AUDIO
    TITLE "6:cjc082_0421"
    INDEX 01 00:46:00
  TRACK 41 AUDIO
    TITLE "0:"
    INDEX 01 00:49:10
  TRACK 42 AUDIO
    TITLE "5:cjc082_0422"
    INDEX 01 00:49:63
  TRACK 43 AUDIO
    TITLE "0:"
    INDEX 01 00:50:70
  TRACK 44 AUDIO
    TITLE "6:cjc082_0423"
    INDEX 01 00:51:52
  TRACK 45 AUDIO
    TITLE "0:"
    INDEX 01 00:53:13
  TRACK 46 AUDIO
    TITLE "5:cjc082_0424"
    INDEX 01 00:53:66
  TRACK 47 AUDIO
    TITLE "0:"
    INDEX 01 00:55:01
  TRACK 48 AUDIO
    TITLE "6:cjc082_0425"
    INDEX 01 00:55:55
  TRACK 49 AUDIO
    TITLE "0:"
    INDEX 01 00:57:01
  TRACK 50 AUDIO
    TITLE "5:cjc082_0426"
    INDEX 01 00:57:58
  TRACK 51 AUDIO
    TITLE "0:"
    INDEX 01 00:59:73
  TRACK 52 AUDIO
    TITLE "6:cjc082_0427"
    INDEX 01 01:00:57
  TRACK 53 AUDIO
    TITLE "0:"
    INDEX 01 01:03:04
  TRACK 54 AUDIO
    TITLE "5:cjc082_0428"
    INDEX 01 01:03:57
  TRACK 55 AUDIO
    TITLE "0:"
    INDEX 01 01:04:74
  TRACK 56 AUDIO
    TITLE "6:cjc082_0429"
    INDEX 01 01:05:52
  TRACK 57 AUDIO
    TITLE "0:"
    INDEX 01 01:06:61
  TRACK 58 AUDIO
    TITLE "7:cjc082_0430"
    INDEX 01 01:08:33
  TRACK 59 AUDIO
    TITLE "0:"
    INDEX 01 01:19:40
